<svg xmlns="http://www.w3.org/2000/svg" viewBox="0 0 620 330" width="620" height="330" role="img" aria-labelledby="title desc">
  <title id="title">Compact TR290A and TR292D ontology fragment</title>
  <desc id="desc">A small class graph showing Intent, PropertyExpectation, ReportingExpectation, Target, Condition, and Quantity with their key relations.</desc>
  <defs>
    <style>
      .bg { fill: #ffffff; }
      .box { stroke: #24425c; stroke-width: 1.6; rx: 10; ry: 10; }
      .box-blue { fill: #e9f2fb; }
      .box-gold { fill: #fff5da; }
      .box-green { fill: #eaf7ee; }
      .box-rose { fill: #fcecef; }
      .box-gray { fill: #f4f6f8; }
      .label { font-family: Helvetica, Arial, sans-serif; font-size: 15px; font-weight: 700; fill: #13212f; text-anchor: middle; }
      .label-small { font-family: Helvetica, Arial, sans-serif; font-size: 13px; font-weight: 700; fill: #13212f; text-anchor: middle; }
      .sub { font-family: Helvetica, Arial, sans-serif; font-size: 12px; fill: #35526b; text-anchor: middle; }
      .sub-small { font-family: Helvetica, Arial, sans-serif; font-size: 11px; fill: #35526b; text-anchor: middle; }
      .edge { stroke: #51697f; stroke-width: 1.5; fill: none; }
      .edge-dashed { stroke-dasharray: 6 5; }
      .edge-label { font-family: Helvetica, Arial, sans-serif; font-size: 11px; fill: #334a5f; text-anchor: middle; }
      .edge-label-small { font-family: Helvetica, Arial, sans-serif; font-size: 10px; fill: #334a5f; text-anchor: middle; }
      .caption { font-family: Helvetica, Arial, sans-serif; font-size: 12px; fill: #51697f; text-anchor: middle; }
    </style>
    <marker id="arrow" viewBox="0 0 10 10" refX="9" refY="5" markerWidth="8" markerHeight="8" orient="auto-start-reverse">
      <path d="M 0 0 L 10 5 L 0 10 z" fill="#51697f" />
    </marker>
  </defs>

  <rect class="bg" x="0" y="0" width="620" height="330" />

  <rect class="box box-blue" x="235" y="20" width="150" height="52" />
  <text class="label" x="310" y="42">Intent</text>
  <text class="sub" x="310" y="60">icm:Intent</text>

  <rect class="box box-blue" x="235" y="110" width="150" height="56" />
  <text class="label" x="310" y="132">Expectation</text>
  <text class="sub" x="310" y="150">icm:Expectation</text>

  <rect class="box box-gold" x="35" y="108" width="165" height="62" />
  <text class="label-small" x="117.5" y="131">
    <tspan x="117.5" dy="0">Property</tspan>
    <tspan x="117.5" dy="14">Expectation</tspan>
  </text>
  <text class="sub-small" x="117.5" y="159">icm:PropertyExpectation</text>

  <rect class="box box-gold" x="405" y="108" width="165" height="62" />
  <text class="label-small" x="487.5" y="131">
    <tspan x="487.5" dy="0">Reporting</tspan>
    <tspan x="487.5" dy="14">Expectation</tspan>
  </text>
  <text class="sub-small" x="487.5" y="159">icm:ReportingExpectation</text>

  <rect class="box box-green" x="55" y="236" width="140" height="54" />
  <text class="label" x="125" y="258">Target</text>
  <text class="sub" x="125" y="276">icm:Target</text>

  <rect class="box box-gray" x="240" y="236" width="140" height="54" />
  <text class="label" x="310" y="258">Condition</text>
  <text class="sub" x="310" y="276">log:Condition</text>

  <rect class="box box-rose" x="425" y="228" width="145" height="70" />
  <text class="label" x="497.5" y="249">Quantity</text>
  <text class="sub" x="497.5" y="267">quan:Quantity</text>
  <text class="sub" x="497.5" y="283">rdf:value, quan:unit</text>

  <path class="edge" marker-end="url(#arrow)" d="M310 72 L310 110" />
  <text class="edge-label" x="356" y="96">contains</text>

  <path class="edge edge-dashed" marker-end="url(#arrow)" d="M200 139 L235 139" />
  <text class="edge-label-small" x="190" y="98">subClassOf</text>

  <path class="edge edge-dashed" marker-end="url(#arrow)" d="M405 139 L385 139" />
  <text class="edge-label-small" x="430" y="98">subClassOf</text>

  <path class="edge" marker-end="url(#arrow)" d="M117.5 170 L117.5 236" />
  <text class="edge-label" x="157" y="206">icm:target</text>

  <path class="edge" marker-end="url(#arrow)" d="M310 166 L310 236" />
  <text class="edge-label" x="365" y="205">log:allOf</text>

  <path class="edge" marker-end="url(#arrow)" d="M487.5 170 L487.5 228" />
  <text class="edge-label" x="540" y="202">icm:target /</text>
  <text class="edge-label" x="540" y="216">report scope</text>

  <path class="edge" marker-end="url(#arrow)" d="M380 263 L425 263" />
  <text class="edge-label-small" x="402" y="248">quan:atMost</text>
  <text class="edge-label-small" x="402" y="260">/ smaller</text>

  <text class="caption" x="310" y="317">Small OWL slice TR290A/TR292D mapping.</text>
</svg>
